<svg width="21" height="21" viewBox="0 0 21 21" fill="none" xmlns="http://www.w3.org/2000/svg">
<path d="M17.5271 16.3251L14.6496 13.4561C15.578 12.2734 16.0817 10.8128 16.0799 9.30923C16.0799 7.97017 15.6828 6.66118 14.9389 5.54779C14.1949 4.4344 13.1375 3.56662 11.9004 3.05419C10.6633 2.54175 9.30196 2.40768 7.98863 2.66891C6.6753 2.93015 5.46893 3.57497 4.52207 4.52183C3.57521 5.46869 2.93039 6.67506 2.66916 7.98839C2.40792 9.30172 2.542 10.663 3.05443 11.9002C3.56687 13.1373 4.43465 14.1947 5.54804 14.9386C6.66142 15.6826 7.97041 16.0796 9.30947 16.0796C10.8131 16.0815 12.2736 15.5778 13.4563 14.6494L16.3253 17.5268C16.404 17.6061 16.4976 17.6691 16.6007 17.7121C16.7038 17.755 16.8145 17.7771 16.9262 17.7771C17.0379 17.7771 17.1485 17.755 17.2516 17.7121C17.3548 17.6691 17.4484 17.6061 17.5271 17.5268C17.6064 17.4481 17.6693 17.3545 17.7123 17.2514C17.7553 17.1483 17.7774 17.0377 17.7774 16.9259C17.7774 16.8142 17.7553 16.7036 17.7123 16.6005C17.6693 16.4973 17.6064 16.4037 17.5271 16.3251ZM4.23167 9.30923C4.23167 8.30493 4.52948 7.32319 5.08743 6.48815C5.64539 5.65311 6.43843 5.00227 7.36628 4.61795C8.29413 4.23362 9.3151 4.13306 10.3001 4.32899C11.2851 4.52492 12.1899 5.00853 12.9 5.71868C13.6102 6.42882 14.0938 7.3336 14.2897 8.3186C14.4856 9.3036 14.3851 10.3246 14.0008 11.2524C13.6164 12.1803 12.9656 12.9733 12.1305 13.5313C11.2955 14.0892 10.3138 14.387 9.30947 14.387C7.96275 14.387 6.6712 13.8521 5.71892 12.8998C4.76665 11.9475 4.23167 10.6559 4.23167 9.30923Z" fill="#DDEAF3"/>
</svg>
